<?xml version='1.0' encoding='iso-8859-1'?>
<svg version="1.1" xmlns="http://www.w3.org/2000/svg" viewBox="0 0 463.006 463.006" xmlns:xlink="http://www.w3.org/1999/xlink" enable-background="new 0 0 463.006 463.006">
  <g>
    <path d="m415.503,120.006h-91.691l57.515-11.393c6.81-1.349 12.449-5.707 15.474-11.955 3.023-6.249 2.94-13.375-0.227-19.552l-33.426-65.18c-3.168-6.177-8.906-10.403-15.745-11.593-6.842-1.193-13.669,0.846-18.737,5.589l-68.403,63.999c-6.037-3.745-13.149-5.915-20.76-5.915h-16c-7.612,0-14.725,2.17-20.762,5.916l-68.404-64c-5.069-4.743-11.899-6.779-18.737-5.589-6.839,1.19-12.578,5.417-15.746,11.593l-33.426,65.18c-3.167,6.177-3.25,13.303-0.227,19.552 3.024,6.249 8.664,10.606 15.474,11.955l57.515,11.393h-91.687c-21.78,0-39.5,17.72-39.5,39.5v64c0,4.142 3.357,7.5 7.5,7.5h8.5v192.5c0,21.78 17.72,39.5 39.5,39.5h336c21.78,0 39.5-17.72 39.5-39.5v-192.5h8.5c4.143,0 7.5-3.358 7.5-7.5v-64c0-21.78-17.72-39.5-39.5-39.5zm-76.589-103.13c1.601-1.497 3.757-2.141 5.916-1.765s3.971,1.71 4.971,3.661l33.426,65.18c1,1.95 1.026,4.2 0.071,6.173-0.954,1.973-2.735,3.349-4.885,3.775l-99.509,19.711c0.062-0.694 0.099-1.395 0.099-2.104v-8c0-8.744-2.861-16.831-7.689-23.382l67.6-63.249zm-99.411,62.13c13.51,0 24.5,10.991 24.5,24.5v8c0,4.687-3.813,8.5-8.5,8.5h-48c-4.687,0-8.5-3.813-8.5-8.5v-8c0-13.509 10.99-24.5 24.5-24.5h16zm42.186,150.316c1.558,1.557 3.721,2.349 5.913,2.171 4.544-0.37 8.931,1.194 12.029,4.294 2.894,2.894 4.445,6.804 4.369,11.01-0.078,4.309-1.844,8.404-4.972,11.532-5.713,5.713-18.014,10.879-32.905,13.819-3.515,0.694-6.048,3.776-6.048,7.358s2.533,6.664 6.048,7.358c14.892,2.94 27.193,8.106 32.905,13.819 3.128,3.127 4.894,7.223 4.972,11.533 0.077,4.206-1.475,8.116-4.369,11.01-3.1,3.1-7.486,4.664-12.029,4.293-2.196-0.179-4.355,0.615-5.913,2.171-1.557,1.557-2.352,3.719-2.173,5.913 0.371,4.547-1.194,8.932-4.294,12.032-6.048,6.049-16.16,5.778-22.542-0.604-5.712-5.712-10.878-18.013-13.818-32.906-0.694-3.514-3.776-6.047-7.358-6.047s-6.664,2.533-7.358,6.047c-2.94,14.893-8.106,27.195-13.818,32.907-6.38,6.379-16.492,6.653-22.542,0.603-3.1-3.1-4.665-7.485-4.294-12.031 0.179-2.194-0.615-4.356-2.172-5.913-1.412-1.412-3.322-2.197-5.303-2.197-0.203,0-0.406,0.008-0.61,0.025-4.542,0.367-8.932-1.195-12.031-4.294-2.894-2.893-4.445-6.803-4.368-11.009 0.078-4.309 1.844-8.405 4.972-11.532 5.713-5.713 18.015-10.879 32.906-13.819 3.515-0.694 6.048-3.776 6.048-7.358s-2.533-6.664-6.047-7.358c-14.894-2.94-27.195-8.106-32.908-13.819-3.127-3.127-4.893-7.223-4.971-11.532-0.077-4.206 1.475-8.116 4.369-11.01 3.098-3.1 7.48-4.665 12.029-4.293 2.192,0.179 4.356-0.615 5.913-2.171 1.557-1.557 2.352-3.719 2.173-5.913-0.371-4.546 1.194-8.932 4.294-12.031 6.048-6.049 16.16-5.778 22.542,0.603 5.712,5.712 10.878,18.014 13.818,32.907 0.694,3.514 3.776,6.047 7.358,6.047s6.664-2.533 7.358-6.047c2.94-14.893 8.106-27.195 13.818-32.908 6.381-6.379 16.494-6.652 22.543-0.602 3.099,3.099 4.664,7.484 4.293,12.031-0.179,2.192 0.616,4.354 2.173,5.911zm-50.186-11.562c-2.122-4.815-4.732-9.466-7.902-13.388 1.257-3.186 4.358-5.366 7.902-5.366 3.521,0 6.635,2.212 7.897,5.373-3.168,3.92-5.776,8.569-7.897,13.381zm-151.799-127.635c-0.955-1.973-0.929-4.223 0.071-6.173l33.426-65.18c1-1.95 2.812-3.285 4.972-3.661 2.159-0.376 4.315,0.268 5.916,1.765l67.602,63.25c-4.828,6.551-7.688,14.637-7.688,23.381v8c0,0.71 0.037,1.411 0.099,2.105l-99.513-19.712c-2.149-0.426-3.931-1.802-4.885-3.775zm-56.701,69.381c0-13.509 10.99-24.5 24.5-24.5h176.5v50.244c-5.107,1.719-9.459,5.144-12.333,9.669-11.454-5.268-25.287-3.354-34.494,5.852-4.182,4.182-6.955,9.49-8.115,15.235h-146.058v-56.5zm401,264c0,13.509-10.99,24.5-24.5,24.5h-336c-13.51,0-24.5-10.991-24.5-24.5v-192.5h109.224c-2.852,4.774-4.324,10.287-4.219,16.063 0.149,8.212 3.475,15.978 9.362,21.866 4.416,4.416 10.279,7.879 16.387,10.571-6.107,2.691-11.97,6.154-16.386,10.571-5.889,5.888-9.214,13.653-9.363,21.866-0.151,8.316 2.96,16.09 8.76,21.889 4.396,4.396 10.027,7.257 16.11,8.299 1.043,6.083 3.904,11.715 8.299,16.11 5.842,5.841 13.546,8.749 21.323,8.749 8.063,0 16.207-3.126 22.432-9.351 4.417-4.416 7.88-10.28 10.571-16.387 2.691,6.107 6.154,11.971 10.57,16.386 12.231,12.23 31.858,12.5 43.756,0.603 4.395-4.395 7.256-10.027 8.299-16.11 6.083-1.042 11.715-3.904 16.109-8.299 5.801-5.8 8.912-13.574 8.761-21.89-0.149-8.212-3.475-15.978-9.362-21.866-4.416-4.417-10.279-7.879-16.386-10.57 6.106-2.692 11.969-6.154 16.385-10.571 5.889-5.888 9.214-13.653 9.362-21.866 0.105-5.777-1.367-11.29-4.218-16.063h109.224v192.5zm16-207.5h-146.059c-1.159-5.745-3.933-11.053-8.115-15.235-9.215-9.214-23.064-11.124-34.524-5.839-2.878-4.488-7.227-7.92-12.302-9.656v-50.271h176.5c13.51,0 24.5,10.991 24.5,24.5v56.501z"/>
    <path d="m262.445,238.504l-30.942,30.943-30.942-30.943c-2.929-2.929-7.677-2.93-10.607,0-2.929,2.929-2.929,7.678 0,10.606l30.943,30.943-30.943,30.943c-2.929,2.929-2.929,7.678 0,10.606 1.465,1.464 3.385,2.197 5.304,2.197s3.839-0.732 5.304-2.197l30.942-30.943 30.942,30.943c1.465,1.465 3.384,2.197 5.304,2.197 1.919,0 3.839-0.732 5.304-2.197 2.929-2.929 2.929-7.678 0-10.606l-30.943-30.943 30.943-30.943c2.929-2.929 2.929-7.678 0-10.606-2.931-2.929-7.679-2.929-10.609,0z"/>
  </g>
</svg>
